<svg width="1277" height="722" viewBox="0 0 1277 722" fill="none" xmlns="http://www.w3.org/2000/svg">
<g opacity="0.8" clip-path="url(#clip0_10_327)">
<path d="M0 203.363L19.4388 216.6C38.7357 229.837 77.6132 256.31 116.349 247.887C155.085 239.463 193.962 196.143 232.414 167.263C271.008 138.383 309.318 123.943 347.912 146.807C386.363 169.67 425.241 229.837 463.977 231.04C502.712 232.243 541.59 174.483 580.326 170.873C619.061 167.263 657.939 217.803 696.674 246.683C735.41 275.563 774.288 282.783 813.023 269.547C851.759 256.31 890.637 222.617 929.088 192.533C967.682 162.45 1005.99 135.977 1044.59 126.35C1083.04 116.723 1121.92 123.943 1160.65 140.79C1199.39 157.637 1238.26 184.11 1257.56 197.347L1277 210.583V0H1257.56C1238.26 0 1199.39 0 1160.65 0C1121.92 0 1083.04 0 1044.59 0C1005.99 0 967.682 0 929.088 0C890.637 0 851.759 0 813.023 0C774.288 0 735.41 0 696.674 0C657.939 0 619.061 0 580.326 0C541.59 0 502.712 0 463.977 0C425.241 0 386.363 0 347.912 0C309.318 0 271.008 0 232.414 0C193.962 0 155.085 0 116.349 0C77.6132 0 38.7357 0 19.4388 0H0V203.363Z" fill="#A45BFF" fill-opacity="0.43"/>
<path d="M0 282.783L19.4388 309.257C38.7357 335.73 77.6132 388.677 116.349 387.473C155.085 386.27 193.962 330.917 232.414 292.41C271.008 253.903 309.318 232.243 347.912 253.903C386.363 275.563 425.241 340.543 463.977 335.73C502.712 330.917 541.59 256.31 580.326 251.497C619.061 246.683 657.939 311.663 696.674 346.56C735.41 381.457 774.288 386.27 813.023 368.22C851.759 350.17 890.637 309.257 929.088 285.19C967.682 261.123 1005.99 253.903 1044.59 246.683C1083.04 239.463 1121.92 232.243 1160.65 249.09C1199.39 265.937 1238.26 306.85 1257.56 327.307L1277 347.763V208.177L1257.56 194.94C1238.26 181.703 1199.39 155.23 1160.65 138.383C1121.92 121.537 1083.04 114.317 1044.59 123.943C1005.99 133.57 967.682 160.043 929.088 190.127C890.637 220.21 851.759 253.903 813.023 267.14C774.288 280.377 735.41 273.157 696.674 244.277C657.939 215.397 619.061 164.857 580.326 168.467C541.59 172.077 502.712 229.837 463.977 228.633C425.241 227.43 386.363 167.263 347.912 144.4C309.318 121.537 271.008 135.977 232.414 164.857C193.962 193.737 155.085 237.057 116.349 245.48C77.6132 253.903 38.7357 227.43 19.4388 214.193L0 200.957V282.783Z" fill="#A45BFF" fill-opacity="0.63"/>
<path d="M0 593.243L19.4388 594.447C38.7357 595.65 77.6132 598.057 116.349 586.023C155.085 573.99 193.962 547.517 232.414 530.67C271.008 513.823 309.318 506.603 347.912 509.01C386.363 511.417 425.241 523.45 463.977 529.467C502.712 535.483 541.59 535.483 580.326 534.28C619.061 533.077 657.939 530.67 696.674 533.077C735.41 535.483 774.288 542.703 813.023 534.28C851.759 525.857 890.637 501.79 929.088 505.4C967.682 509.01 1005.99 540.297 1044.59 555.94C1083.04 571.583 1121.92 571.583 1160.65 560.753C1199.39 549.923 1238.26 528.263 1257.56 517.433L1277 506.603V345.357L1257.56 324.9C1238.26 304.443 1199.39 263.53 1160.65 246.683C1121.92 229.837 1083.04 237.057 1044.59 244.277C1005.99 251.497 967.682 258.717 929.088 282.783C890.637 306.85 851.759 347.763 813.023 365.813C774.288 383.863 735.41 379.05 696.674 344.153C657.939 309.257 619.061 244.277 580.326 249.09C541.59 253.903 502.712 328.51 463.977 333.323C425.241 338.137 386.363 273.157 347.912 251.497C309.318 229.837 271.008 251.497 232.414 290.003C193.962 328.51 155.085 383.863 116.349 385.067C77.6132 386.27 38.7357 333.323 19.4388 306.85L0 280.377V593.243Z" fill="#823ED8" fill-opacity="0.64"/>
<path d="M0 665.443H19.4388C38.7357 665.443 77.6132 665.443 116.349 652.207C155.085 638.97 193.962 612.497 232.414 604.073C271.008 595.65 309.318 605.277 347.912 607.683C386.363 610.09 425.241 605.277 463.977 608.887C502.712 612.497 541.59 624.53 580.326 623.327C619.061 622.123 657.939 607.683 696.674 613.7C735.41 619.717 774.288 646.19 813.023 643.783C851.759 641.377 890.637 610.09 929.088 601.667C967.682 593.243 1005.99 607.683 1044.59 617.31C1083.04 626.937 1121.92 631.75 1160.65 631.75C1199.39 631.75 1238.26 626.937 1257.56 624.53L1277 622.123V504.197L1257.56 515.027C1238.26 525.857 1199.39 547.517 1160.65 558.347C1121.92 569.177 1083.04 569.177 1044.59 553.533C1005.99 537.89 967.682 506.603 929.088 502.993C890.637 499.383 851.759 523.45 813.023 531.873C774.288 540.297 735.41 533.077 696.674 530.67C657.939 528.263 619.061 530.67 580.326 531.873C541.59 533.077 502.712 533.077 463.977 527.06C425.241 521.043 386.363 509.01 347.912 506.603C309.318 504.197 271.008 511.417 232.414 528.263C193.962 545.11 155.085 571.583 116.349 583.617C77.6132 595.65 38.7357 593.243 19.4388 592.04L0 590.837V665.443Z" fill="#5E2B9D" fill-opacity="0.67"/>
<path d="M0 723.203H19.4388C38.7357 723.203 77.6132 723.203 116.349 723.203C155.085 723.203 193.962 723.203 232.414 723.203C271.008 723.203 309.318 723.203 347.912 723.203C386.363 723.203 425.241 723.203 463.977 723.203C502.712 723.203 541.59 723.203 580.326 723.203C619.061 723.203 657.939 723.203 696.674 723.203C735.41 723.203 774.288 723.203 813.023 723.203C851.759 723.203 890.637 723.203 929.088 723.203C967.682 723.203 1005.99 723.203 1044.59 723.203C1083.04 723.203 1121.92 723.203 1160.65 723.203C1199.39 723.203 1238.26 723.203 1257.56 723.203H1277V619.717L1257.56 622.123C1238.26 624.53 1199.39 629.343 1160.65 629.343C1121.92 629.343 1083.04 624.53 1044.59 614.903C1005.99 605.277 967.682 590.837 929.088 599.26C890.637 607.683 851.759 638.97 813.023 641.377C774.288 643.783 735.41 617.31 696.674 611.293C657.939 605.277 619.061 619.717 580.326 620.92C541.59 622.123 502.712 610.09 463.977 606.48C425.241 602.87 386.363 607.683 347.912 605.277C309.318 602.87 271.008 593.243 232.414 601.667C193.962 610.09 155.085 636.563 116.349 649.8C77.6132 663.037 38.7357 663.037 19.4388 663.037H0V723.203Z" fill="#411A72" fill-opacity="0.71"/>
</g>
<defs>
<clipPath id="clip0_10_327">
<rect width="1277" height="722" fill="white"/>
</clipPath>
</defs>
</svg>
