<svg id="visual" viewBox="0 0 900 600" width="900" height="600" xmlns="http://www.w3.org/2000/svg" xmlns:xlink="http://www.w3.org/1999/xlink" version="1.1"><path d="M0 121L82 121L82 151L164 151L164 199L245 199L245 193L327 193L327 91L409 91L409 133L491 133L491 127L573 127L573 193L655 193L655 241L736 241L736 133L818 133L818 211L900 211L900 103L900 0L900 0L818 0L818 0L736 0L736 0L655 0L655 0L573 0L573 0L491 0L491 0L409 0L409 0L327 0L327 0L245 0L245 0L164 0L164 0L82 0L82 0L0 0Z" fill="#66106b"></path><path d="M0 169L82 169L82 277L164 277L164 247L245 247L245 247L327 247L327 157L409 157L409 217L491 217L491 199L573 199L573 259L655 259L655 319L736 319L736 235L818 235L818 283L900 283L900 175L900 101L900 209L818 209L818 131L736 131L736 239L655 239L655 191L573 191L573 125L491 125L491 131L409 131L409 89L327 89L327 191L245 191L245 197L164 197L164 149L82 149L82 119L0 119Z" fill="#7b0f6a"></path><path d="M0 217L82 217L82 313L164 313L164 349L245 349L245 283L327 283L327 235L409 235L409 289L491 289L491 301L573 301L573 331L655 331L655 415L736 415L736 307L818 307L818 325L900 325L900 241L900 173L900 281L818 281L818 233L736 233L736 317L655 317L655 257L573 257L573 197L491 197L491 215L409 215L409 155L327 155L327 245L245 245L245 245L164 245L164 275L82 275L82 167L0 167Z" fill="#8f1167"></path><path d="M0 439L82 439L82 541L164 541L164 451L245 451L245 445L327 445L327 469L409 469L409 547L491 547L491 529L573 529L573 457L655 457L655 505L736 505L736 457L818 457L818 505L900 505L900 541L900 239L900 323L818 323L818 305L736 305L736 413L655 413L655 329L573 329L573 299L491 299L491 287L409 287L409 233L327 233L327 281L245 281L245 347L164 347L164 311L82 311L82 215L0 215Z" fill="#a01863"></path><path d="M0 601L82 601L82 601L164 601L164 601L245 601L245 601L327 601L327 601L409 601L409 601L491 601L491 601L573 601L573 601L655 601L655 601L736 601L736 601L818 601L818 601L900 601L900 601L900 539L900 503L818 503L818 455L736 455L736 503L655 503L655 455L573 455L573 527L491 527L491 545L409 545L409 467L327 467L327 443L245 443L245 449L164 449L164 539L82 539L82 437L0 437Z" fill="#b0235f"></path></svg>