<?xml version="1.0" encoding="UTF-8" standalone="no"?>
<svg
   viewBox="0 0 223 266"
   fill="none"
   version="1.1"
   id="svg267"
   sodipodi:docname="newlogo 1.svg"
   inkscape:version="1.4 (e7c3feb100, 2024-10-09)"
   xmlns:inkscape="http://www.inkscape.org/namespaces/inkscape"
   xmlns:sodipodi="http://sodipodi.sourceforge.net/DTD/sodipodi-0.dtd"
   xmlns="http://www.w3.org/2000/svg"
   xmlns:svg="http://www.w3.org/2000/svg">
  <sodipodi:namedview
     id="namedview267"
     pagecolor="#ffffff"
     bordercolor="#000000"
     borderopacity="0.25"
     inkscape:showpageshadow="2"
     inkscape:pageopacity="0.0"
     inkscape:pagecheckerboard="0"
     inkscape:deskcolor="#d1d1d1"
     inkscape:zoom="8.6165413"
     inkscape:cx="153.65794"
     inkscape:cy="91.800175"
     inkscape:window-width="2560"
     inkscape:window-height="1354"
     inkscape:window-x="0"
     inkscape:window-y="0"
     inkscape:window-maximized="1"
     inkscape:current-layer="g267" />
  <g
     opacity="0.94"
     clip-path="url(#clip0_98_3437)"
     id="g267">
    <path
       d="M103.646 48.8928C99.3057 48.889 95.6506 52.5372 95.6377 56.886C95.6249 61.2257 99.2561 64.8528 103.634 64.8736C108.044 64.8944 111.674 61.2674 111.657 56.8573C111.64 52.4877 108.029 48.8966 103.646 48.8928Z"
       fill="#E31C1C"
       id="path258" />
    <path
       d="M103.647 48.8928C108.029 48.8966 111.641 52.4877 111.657 56.8573C111.674 61.2674 108.044 64.8944 103.634 64.8736C99.2562 64.8528 95.6251 61.2257 95.6379 56.886C95.6508 52.5372 99.3058 48.889 103.647 48.8928ZM91.633 121.135C85.9707 115.02 84.0897 107.782 85.9817 99.6115C87.0809 94.8645 89.5748 90.9274 93.2267 87.7831C96.7839 84.7202 100.946 83.0069 105.633 82.6164C108.482 82.3789 111.347 82.2081 114.101 81.3444C117.444 80.2963 120.439 78.603 123.036 76.2382C126.33 73.2381 128.718 69.6081 130.004 65.3246C132.222 57.94 131.37 50.8966 127.335 44.3133C125.867 41.9183 123.979 39.8836 121.768 38.1696C117.149 36.599 112.199 35.7464 107.05 35.7464C81.8087 35.7464 61.3467 56.2089 61.3467 81.45C61.3467 104.193 77.9598 123.05 99.7115 126.562C96.6576 125.449 93.9429 123.63 91.633 121.135Z"
       fill="#493EEC"
       id="path260" />
    <path
       d="M104.197 97.3516C100.155 97.1125 95.9696 100.142 95.7986 105.215C95.6601 109.327 98.6106 113.269 103.542 113.527C107.601 113.739 111.492 110.627 111.843 106.038C112.183 101.597 108.81 97.518 104.197 97.3516Z"
       fill="#0120DC"
       id="path261" />
    <path
       d="M105.984 127.14C106.338 127.148 106.693 127.154 107.05 127.154C115.332 127.154 123.1 124.95 129.799 121.098C123.1 124.95 115.332 127.154 107.05 127.154C106.693 127.154 106.338 127.148 105.984 127.14Z"
       fill="white"
       id="path262" />
    <path
       d="m 111.843,106.038 c -0.351,4.589 -4.241,7.701 -8.301,7.489 -4.9312,-0.258 -7.8817,-4.2 -7.7431,-8.312 0.1709,-5.073 4.3561,-8.1025 8.3991,-7.8634 4.612,0.1664 7.985,4.2454 7.645,8.6864 z m 40.91,-24.5949 c 0,-0.3575 -0.005,-0.7139 -0.013,-1.0696 -0.003,-0.1127 -0.007,-0.2249 -0.01,-0.3375 -0.009,-0.2497 -0.017,-0.4989 -0.029,-0.7477 -0.006,-0.1244 -0.012,-0.2488 -0.019,-0.3731 -0.014,-0.2504 -0.03,-0.5003 -0.047,-0.7496 -0.008,-0.1084 -0.015,-0.2169 -0.023,-0.325 -0.027,-0.3518 -0.059,-0.7027 -0.093,-1.0522 -0.004,-0.0308 -0.008,-0.0613 -0.011,-0.092 -0.033,-0.3202 -0.07,-0.6392 -0.11,-0.9573 -0.014,-0.1128 -0.029,-0.2251 -0.044,-0.3377 -0.031,-0.2399 -0.065,-0.4794 -0.101,-0.7183 -0.017,-0.1216 -0.036,-0.2431 -0.055,-0.3643 -0.038,-0.2453 -0.079,-0.4898 -0.121,-0.7338 -0.018,-0.1021 -0.035,-0.2047 -0.053,-0.3067 -0.062,-0.3404 -0.126,-0.6797 -0.195,-1.0173 -0.01,-0.0512 -0.022,-0.1019 -0.033,-0.153 -0.06,-0.2884 -0.122,-0.5759 -0.187,-0.8622 -0.026,-0.1129 -0.053,-0.2254 -0.079,-0.3379 -0.055,-0.2288 -0.111,-0.4571 -0.168,-0.6846 -0.03,-0.1183 -0.06,-0.2366 -0.09,-0.3544 -0.063,-0.2383 -0.127,-0.4755 -0.193,-0.7122 -0.027,-0.0964 -0.053,-0.1933 -0.08,-0.2895 -0.095,-0.3267 -0.191,-0.6519 -0.291,-0.9756 -0.02,-0.0666 -0.043,-0.1324 -0.064,-0.1987 -0.082,-0.2601 -0.165,-0.5194 -0.252,-0.7774 -0.038,-0.1128 -0.077,-0.2249 -0.115,-0.3372 -0.075,-0.2157 -0.15,-0.4307 -0.227,-0.6449 -0.042,-0.1154 -0.084,-0.2309 -0.127,-0.346 -0.084,-0.2288 -0.171,-0.4565 -0.259,-0.6836 -0.036,-0.0911 -0.07,-0.1827 -0.106,-0.2736 -0.123,-0.3107 -0.249,-0.6199 -0.379,-0.9271 -0.033,-0.0783 -0.067,-0.1556 -0.101,-0.2336 -0.1,-0.2336 -0.201,-0.4666 -0.305,-0.6982 -0.051,-0.112 -0.102,-0.2235 -0.153,-0.335 -0.092,-0.201 -0.185,-0.4012 -0.28,-0.6008 -0.054,-0.1127 -0.108,-0.2253 -0.162,-0.3375 -0.105,-0.2167 -0.213,-0.4321 -0.322,-0.6469 -0.044,-0.0869 -0.086,-0.1744 -0.131,-0.261 -0.15,-0.2927 -0.304,-0.5835 -0.46,-0.8725 -0.047,-0.0864 -0.095,-0.1716 -0.143,-0.2575 -0.115,-0.2089 -0.23,-0.4171 -0.348,-0.6239 -0.064,-0.1108 -0.128,-0.221 -0.192,-0.3313 -0.108,-0.185 -0.216,-0.3693 -0.327,-0.5528 -0.065,-0.1094 -0.131,-0.219 -0.198,-0.3278 -0.124,-0.2036 -0.251,-0.4056 -0.379,-0.607 -0.052,-0.0819 -0.102,-0.1647 -0.155,-0.2463 -0.175,-0.273 -0.354,-0.5439 -0.535,-0.8129 -0.062,-0.0916 -0.125,-0.1821 -0.187,-0.2733 -0.127,-0.185 -0.254,-0.3693 -0.383,-0.5524 -0.077,-0.1087 -0.154,-0.2168 -0.232,-0.3248 -0.121,-0.1681 -0.243,-0.3354 -0.366,-0.5018 -0.078,-0.1057 -0.156,-0.2118 -0.236,-0.3169 -0.141,-0.1879 -0.285,-0.3743 -0.429,-0.5601 -0.06,-0.0777 -0.12,-0.1564 -0.181,-0.2337 -0.198,-0.2517 -0.399,-0.5009 -0.602,-0.7482 -0.077,-0.0938 -0.156,-0.1862 -0.234,-0.2793 -0.136,-0.1627 -0.272,-0.3249 -0.41,-0.4856 -0.09,-0.1051 -0.181,-0.2095 -0.273,-0.3138 -0.132,-0.151 -0.265,-0.3009 -0.399,-0.4502 -0.091,-0.101 -0.181,-0.2022 -0.273,-0.3023 -0.157,-0.1719 -0.316,-0.3421 -0.476,-0.5116 -0.069,-0.0725 -0.136,-0.1459 -0.205,-0.2179 -0.218,-0.229 -0.44,-0.4552 -0.663,-0.6795 -0.093,-0.093 -0.187,-0.1846 -0.28,-0.2769 -0.144,-0.1417 -0.288,-0.2829 -0.433,-0.4228 -0.104,-0.0995 -0.208,-0.1984 -0.312,-0.297 -0.142,-0.1338 -0.285,-0.2665 -0.428,-0.3985 -0.103,-0.095 -0.206,-0.1901 -0.31,-0.2841 -0.172,-0.1555 -0.346,-0.309 -0.521,-0.4618 -0.106,-0.0928 -0.211,-0.1854 -0.318,-0.2772 -0.207,-0.1781 -0.415,-0.3545 -0.625,-0.529 -0.108,-0.0891 -0.217,-0.1768 -0.325,-0.2649 -0.15,-0.1221 -0.3,-0.2437 -0.452,-0.3638 -0.116,-0.0925 -0.233,-0.1843 -0.351,-0.2757 -0.15,-0.1167 -0.301,-0.2321 -0.452,-0.3469 -0.115,-0.0872 -0.23,-0.1748 -0.346,-0.2609 -0.188,-0.1395 -0.377,-0.2769 -0.567,-0.4137 -0.139,-0.0999 -0.278,-0.199 -0.418,-0.2974 -0.195,-0.1374 -0.392,-0.2741 -0.589,-0.4085 -0.121,-0.0822 -0.243,-0.1627 -0.365,-0.2436 -0.156,-0.1039 -0.312,-0.2073 -0.47,-0.3093 -0.128,-0.0832 -0.257,-0.1659 -0.386,-0.2478 -0.158,-0.1002 -0.317,-0.199 -0.476,-0.2973 -0.125,-0.0774 -0.251,-0.1553 -0.377,-0.2315 -0.206,-0.1247 -0.415,-0.2471 -0.623,-0.3686 -0.16,-0.0929 -0.32,-0.1846 -0.481,-0.2756 -0.19,-0.1075 -0.38,-0.2146 -0.571,-0.3194 -0.133,-0.0728 -0.267,-0.144 -0.401,-0.2155 -0.162,-0.0865 -0.324,-0.1724 -0.487,-0.257 -0.139,-0.0721 -0.278,-0.1435 -0.417,-0.2141 -0.167,-0.0841 -0.334,-0.1665 -0.501,-0.2486 -0.134,-0.0658 -0.268,-0.1322 -0.402,-0.1968 -0.236,-0.1129 -0.474,-0.2231 -0.712,-0.332 -0.161,-0.0739 -0.323,-0.1462 -0.486,-0.2182 -0.19,-0.0843 -0.38,-0.1683 -0.571,-0.25 -0.143,-0.0609 -0.286,-0.1201 -0.429,-0.1794 -0.169,-0.0702 -0.339,-0.1397 -0.509,-0.2079 -0.147,-0.0588 -0.293,-0.1171 -0.441,-0.1743 -0.175,-0.0684 -0.352,-0.1349 -0.529,-0.2011 -0.139,-0.0524 -0.279,-0.1056 -0.419,-0.1567 -0.292,-0.106 -0.585,-0.2093 -0.879,-0.3096 l -0.012,-0.0038 c 2.211,1.7141 4.1,3.7488 5.567,6.1437 4.035,6.5834 4.887,13.6267 2.669,21.0114 -1.286,4.2835 -3.674,7.9135 -6.968,10.9136 -2.596,2.3648 -5.592,4.0581 -8.934,5.1062 -2.755,0.8637 -5.62,1.0345 -8.469,1.2719 -4.687,0.3906 -8.8488,2.1039 -12.4061,5.1668 -3.6519,3.1442 -6.1457,7.0814 -7.245,11.8284 -1.8919,8.1705 -0.0109,15.4085 5.6513,21.5235 2.3099,2.495 5.0246,4.314 8.0786,5.427 0.2842,0.046 0.5682,0.09 0.8542,0.131 0.04,0.006 0.08,0.011 0.12,0.017 0.276,0.039 0.552,0.075 0.829,0.109 0.016,10e-4 0.032,0.003 0.048,0.005 0.52,0.062 1.044,0.115 1.569,0.161 0.08,0.006 0.159,0.014 0.238,0.02 0.186,0.015 0.373,0.027 0.56,0.04 0.176,0.012 0.352,0.023 0.529,0.034 0.16,0.009 0.32,0.016 0.48,0.024 0.221,0.01 0.443,0.018 0.665,0.025 0.127,0.004 0.253,0.008 0.38,0.012 0.355,0.008 0.71,0.014 1.066,0.014 8.282,0 16.05,-2.204 22.749,-6.056 1.675,-0.963 3.283,-2.029 4.815,-3.19 0.511,-0.386 1.014,-0.784 1.507,-1.191 0.432,-0.356 0.855,-0.723 1.273,-1.094 0.26,-0.232 0.518,-0.466 0.773,-0.703 0.538,-0.501 1.065,-1.015 1.578,-1.541 0.262,-0.267 0.52,-0.538 0.775,-0.812 0.369,-0.397 0.733,-0.798 1.088,-1.208 0.433,-0.499 0.853,-1.009 1.263,-1.526 0.716,-0.902 1.399,-1.831 2.047,-2.786 0.215,-0.318 0.427,-0.639 0.635,-0.963 4.557,-7.1091 7.201,-15.563 7.201,-24.634 z"
       fill="#d82525"
       id="path263"
       sodipodi:nodetypes="ccccccccscccccccccccccccccccccccccccccccccccccccccccccccccccsccccccccccccsccccccccccccccccccccccccccccccccccccccccccccccccccccscsccccccccccccc" />
    <path
       d="M121.767 38.1689L121.768 38.1693L121.78 38.1733L121.767 38.1689Z"
       fill="white"
       id="path264" />
    <path
       d="M99.7212 126.565C100.002 126.611 100.284 126.653 100.566 126.693C100.28 126.652 99.9957 126.608 99.7114 126.562L99.7212 126.565Z"
       fill="white"
       id="path265" />
    <path
       d="M103.132 126.985C102.881 126.963 102.631 126.939 102.382 126.914C102.631 126.939 102.882 126.963 103.132 126.985Z"
       fill="black"
       id="path266" />
    <path
       d="M99.7113 126.562C94.693 125.752 89.9471 124.124 85.6167 121.821C86.9568 121.914 88.3089 121.962 89.6726 121.962C90.578 121.962 91.4802 121.941 92.3755 121.9C94.5179 124.004 96.9789 125.566 99.7113 126.562Z"
       fill="#1800FF"
       id="path267" />
  </g>
  <defs
     id="defs267">
    <clipPath
       id="clip0_98_3437">
      <rect
         width="130"
         height="130"
         fill="white"
         transform="translate(57 8)"
         id="rect267" />
    </clipPath>
  </defs>
</svg>
